<?xml version="1.0" standalone="no"?>
<!DOCTYPE svg PUBLIC "-//W3C//DTD SVG 20010904//EN"
 "http://www.w3.org/TR/2001/REC-SVG-20010904/DTD/svg10.dtd">
<svg version="1.0" xmlns="http://www.w3.org/2000/svg"
 width="1152.000000pt" height="1152.000000pt" viewBox="0 0 1152.000000 1152.000000"
 preserveAspectRatio="xMidYMid meet">
<metadata>
Created by potrace 1.14, written by Peter Selinger 2001-2017
</metadata>
<g transform="translate(0.000000,1152.000000) scale(0.100000,-0.100000)"
fill="#000000" stroke="none">
<path d="M2845 10202 c-2 -2 -32 -5 -67 -7 -35 -2 -63 -4 -63 -5 0 -1 -18 -3
-40 -4 -42 -3 -133 -15 -169 -22 -12 -2 -50 -9 -86 -14 -36 -6 -78 -15 -95
-20 -16 -5 -41 -11 -55 -14 -14 -2 -45 -10 -70 -17 -25 -7 -47 -13 -50 -14
-190 -53 -272 -84 -474 -179 -65 -31 -122 -56 -127 -56 -5 0 -9 -4 -9 -8 0 -5
-17 -16 -37 -26 -35 -17 -210 -127 -243 -153 -8 -6 -51 -40 -95 -74 -44 -34
-102 -83 -128 -108 -71 -67 -175 -171 -170 -171 2 0 -10 -15 -26 -32 -72 -80
-161 -199 -161 -216 0 -6 -4 -12 -8 -14 -10 -4 -92 -135 -92 -147 0 -4 -7 -14
-15 -21 -9 -7 -13 -15 -11 -17 2 -3 -7 -28 -22 -56 -14 -29 -27 -58 -28 -66
-2 -8 -9 -18 -16 -22 -7 -5 -10 -9 -6 -9 4 0 -7 -37 -24 -82 -16 -46 -31 -90
-33 -98 -3 -13 -19 -81 -30 -120 -2 -8 -4 -17 -5 -20 -1 -3 -2 -9 -1 -14 1 -5
-1 -16 -5 -25 -4 -9 -8 -29 -9 -46 -2 -16 -6 -50 -10 -75 -11 -66 -13 -321 -4
-382 4 -29 10 -71 13 -93 18 -142 62 -299 127 -450 7 -16 13 -32 13 -35 3 -14
83 -167 94 -178 7 -8 10 -17 7 -22 -3 -5 -2 -10 2 -12 5 -1 35 -43 67 -91 32
-49 64 -94 71 -100 6 -7 16 -19 21 -29 25 -45 228 -255 323 -335 19 -15 48
-40 65 -54 46 -39 180 -130 273 -187 75 -46 341 -184 353 -184 3 1 24 -8 47
-18 22 -10 52 -21 65 -25 12 -3 32 -10 43 -15 24 -10 59 -22 63 -21 1 1 18 -5
37 -13 19 -8 35 -12 35 -9 0 3 6 1 13 -5 6 -6 14 -10 17 -10 3 0 25 -6 50 -12
25 -7 54 -14 65 -16 11 -1 20 -3 20 -4 0 -3 27 -9 150 -34 111 -22 148 -28
260 -42 174 -22 578 -21 725 0 19 3 55 8 80 11 25 3 68 10 95 15 28 5 64 12
80 15 69 12 109 20 153 34 17 5 32 7 32 4 0 -3 6 0 13 6 8 6 17 8 20 5 3 -3
12 -2 19 2 7 5 19 10 26 11 6 2 18 4 25 6 6 1 18 6 25 10 6 5 12 5 12 1 0 -3
7 -1 15 6 8 7 15 10 15 6 0 -5 39 8 115 39 11 4 25 9 30 10 24 6 154 61 194
82 24 13 50 23 56 23 7 0 18 7 25 15 7 8 16 12 21 9 5 -3 9 0 9 5 0 6 7 11 15
11 9 0 28 8 43 19 15 10 59 36 97 59 39 22 108 67 155 101 47 33 93 66 103 73
18 13 86 71 135 116 14 12 28 22 31 22 4 0 13 12 22 28 13 23 15 100 14 537
l-1 510 -24 -1 c-14 -1 -36 -4 -50 -8 -14 -3 -46 -10 -71 -16 -26 -6 -55 -13
-65 -15 -11 -2 -19 -4 -19 -5 0 -1 -7 -3 -15 -5 -8 -2 -26 -6 -40 -9 -14 -3
-59 -13 -100 -22 -97 -21 -102 -24 -130 -81 -14 -26 -27 -50 -31 -53 -3 -3 -8
-9 -10 -15 -11 -26 -73 -115 -80 -115 -5 0 -9 -5 -9 -11 0 -7 -13 -26 -29 -43
-80 -84 -141 -144 -177 -174 -21 -17 -45 -37 -53 -44 -74 -62 -380 -231 -418
-231 -7 0 -13 -4 -13 -9 0 -5 -6 -8 -12 -7 -7 1 -26 -3 -43 -10 -16 -7 -38
-13 -47 -14 -10 -1 -18 -4 -18 -7 0 -4 -6 -7 -12 -8 -15 -1 -53 -10 -53 -12 0
-1 -11 -4 -25 -6 -14 -3 -41 -9 -60 -14 -35 -9 -80 -18 -135 -26 -16 -2 -50
-7 -75 -11 -95 -14 -425 -7 -520 11 -14 3 -54 10 -90 16 -36 6 -78 15 -95 20
-16 5 -64 19 -105 31 -41 12 -79 26 -84 31 -6 4 -20 8 -33 8 -13 0 -23 5 -23
12 0 6 -3 8 -6 5 -4 -4 -19 0 -33 7 -14 8 -64 33 -111 56 -47 23 -93 49 -102
58 -10 8 -18 11 -18 7 0 -5 -10 1 -22 12 -13 11 -40 30 -60 42 -21 13 -38 27
-38 32 0 5 -5 9 -10 9 -16 0 -31 13 -161 143 -66 64 -119 124 -119 131 0 8 -4
16 -8 18 -35 14 -176 287 -197 382 -2 12 -12 48 -20 81 -8 33 -17 106 -20 163
-2 56 -6 106 -9 111 -3 4 -2 11 1 15 4 3 8 23 9 44 8 121 47 263 107 392 31
66 113 200 151 248 41 50 202 209 241 238 22 16 48 37 59 46 10 9 34 24 52 33
19 9 34 19 34 23 0 4 10 12 23 18 12 5 54 27 92 47 152 78 347 148 480 171 17
3 55 10 85 16 159 30 500 33 630 5 14 -3 39 -7 55 -10 55 -8 90 -16 121 -26
17 -5 41 -12 54 -14 13 -2 39 -10 59 -17 20 -7 39 -13 44 -14 4 -1 9 -3 12 -4
3 -1 8 -3 13 -5 12 -3 45 -16 77 -30 87 -39 74 -42 197 51 62 46 120 90 128
97 8 7 62 48 120 91 58 44 107 82 110 85 3 3 67 53 143 109 76 57 137 108 135
114 -2 5 -30 24 -63 41 -33 18 -61 35 -63 39 -2 5 -8 8 -14 8 -6 0 -52 20
-102 44 -78 37 -126 58 -251 106 -104 41 -394 119 -495 134 -19 2 -46 7 -60
10 -14 3 -46 8 -72 11 -27 3 -69 8 -95 11 -27 3 -73 8 -103 10 -66 6 -420 10
-425 6z"/>
<path d="M7002 10169 c-13 -5 -38 -11 -55 -14 -18 -2 -78 -16 -135 -30 -56
-13 -112 -27 -125 -29 -12 -3 -33 -8 -47 -11 -14 -4 -35 -7 -47 -8 -13 -1 -23
-5 -23 -9 0 -4 -9 -8 -20 -8 -10 0 -77 -14 -147 -31 -132 -32 -148 -36 -197
-45 -16 -2 -32 -7 -36 -9 -4 -2 -22 -7 -41 -10 -19 -3 -52 -10 -74 -16 -22 -5
-48 -11 -58 -14 -10 -2 -28 -7 -40 -11 -12 -5 -26 -8 -32 -9 -43 -4 -106 -19
-110 -25 -2 -4 -5 -733 -5 -1620 -1 -908 -6 -1624 -11 -1637 -5 -14 -5 -23 1
-23 5 0 7 -7 3 -16 -9 -23 -9 -514 -1 -514 4 0 5 -6 2 -13 -8 -22 -11 -86 -3
-98 3 -6 3 -26 -1 -45 -4 -19 -5 -34 -1 -34 4 0 6 -13 3 -29 -3 -21 1 -32 14
-38 11 -5 764 -8 1699 -8 l1680 1 -1 22 c0 12 2 22 5 22 3 0 6 36 6 80 0 44
-4 80 -9 80 -5 0 -5 6 0 13 5 6 8 31 7 55 -2 23 -3 49 -3 57 0 8 0 44 0 80 0
36 0 72 0 80 0 8 0 44 0 80 0 36 0 72 0 80 0 8 0 44 0 80 0 36 0 71 0 78 -1 6
1 27 3 45 2 18 -2 36 -7 40 -6 4 -83 7 -172 8 -88 0 -166 4 -172 8 -7 4 -12 4
-12 -1 0 -4 -96 -7 -212 -6 -117 2 -217 3 -223 3 -5 0 -63 -1 -128 -3 -64 -1
-117 2 -117 6 0 5 -5 5 -12 1 -17 -11 -229 -11 -250 -1 -10 4 -18 4 -18 0 0
-4 -116 -7 -257 -6 -142 2 -262 3 -268 3 -5 0 -68 -1 -140 -3 -71 -2 -138 1
-147 5 -15 7 -16 110 -17 1415 0 2163 1 2043 -13 2042 -7 0 -24 -4 -36 -10z"/>
<path d="M9983 10112 c-18 -2 -34 -9 -34 -15 -1 -7 -2 -972 -3 -2145 l-1
-2133 30 5 c57 11 70 14 196 45 69 17 137 33 150 35 13 3 25 5 27 7 2 2 6 3
52 12 70 14 115 25 115 27 0 2 10 4 55 13 26 6 121 28 225 52 33 8 110 26 170
40 61 14 130 30 155 37 l46 11 -1 1998 c0 1098 -3 2000 -7 2004 -6 6 -1112 13
-1175 7z"/>
<path d="M4995 8904 c-27 -8 -61 -15 -75 -18 -14 -2 -45 -9 -70 -16 -25 -7
-56 -14 -69 -17 -13 -2 -51 -11 -85 -19 -34 -8 -70 -17 -81 -19 -26 -6 -49
-12 -105 -26 -25 -6 -53 -12 -64 -14 -21 -5 -283 -65 -306 -71 -8 -2 -35 -9
-60 -15 -25 -6 -54 -13 -65 -15 -29 -4 -54 -10 -105 -24 -25 -7 -56 -14 -70
-17 -14 -2 -81 -17 -149 -34 -68 -16 -133 -31 -145 -33 -28 -6 -43 -10 -166
-40 -58 -14 -157 -37 -220 -51 -63 -15 -122 -28 -130 -30 -8 -2 -37 -9 -65
-15 -58 -14 -77 -18 -107 -26 -13 -3 -34 -7 -48 -10 -13 -3 -26 -7 -28 -8 -1
-2 9 -35 23 -73 14 -39 25 -78 25 -87 0 -9 4 -16 8 -16 5 0 14 -24 21 -52 8
-29 17 -57 21 -63 6 -10 30 -87 31 -102 0 -5 4 -12 9 -18 6 -9 43 -111 45
-125 0 -3 5 -18 12 -35 22 -59 26 -70 29 -85 7 -36 49 -128 56 -124 4 3 17 7
28 10 11 2 30 6 43 10 12 3 33 7 47 10 14 3 43 10 65 16 55 14 87 21 108 22 9
0 17 4 17 8 0 4 3 7 8 6 9 -2 104 16 117 22 3 1 13 3 23 5 9 1 24 4 32 7 14 5
79 21 140 34 62 13 82 18 150 35 25 6 54 13 65 15 11 2 49 10 85 19 36 8 75
18 88 20 21 5 173 41 217 52 11 3 27 6 35 7 9 1 21 5 28 10 6 4 12 5 12 2 0
-2 15 0 33 5 17 5 46 12 62 15 43 8 48 9 70 17 11 3 31 8 45 11 23 5 65 14
100 21 8 2 15 4 15 5 0 1 11 4 24 6 14 2 54 11 90 20 90 21 114 26 129 27 6 0
12 3 12 7 0 3 8 6 18 6 26 2 74 12 80 19 8 7 10 805 2 826 -4 14 -11 14 -55 3z"/>
<path d="M6495 4330 c-102 -59 -291 -176 -293 -182 -2 -5 -12 -8 -23 -8 -10 0
-19 -4 -19 -10 0 -5 -7 -10 -15 -10 -8 0 -15 -4 -15 -9 0 -5 -12 -14 -27 -21
-47 -19 -73 -34 -73 -42 0 -5 -6 -8 -14 -8 -28 0 -23 -28 11 -64 20 -20 65
-62 101 -94 36 -31 78 -68 93 -82 15 -14 37 -32 50 -40 12 -8 32 -25 45 -37
13 -13 26 -23 29 -23 4 0 108 -72 140 -97 28 -22 65 -43 65 -36 0 5 5 0 11 -9
5 -10 14 -18 18 -18 5 0 38 -18 73 -39 77 -47 258 -138 348 -176 36 -15 83
-35 105 -45 23 -10 54 -22 70 -26 17 -4 35 -10 40 -14 10 -8 137 -49 167 -55
9 -2 25 -8 35 -13 10 -6 32 -13 48 -16 17 -3 75 -17 129 -30 54 -14 103 -23
107 -20 5 3 9 1 9 -5 0 -5 8 -9 18 -9 9 0 31 -3 47 -6 17 -4 41 -9 55 -10 14
-2 39 -6 55 -9 46 -9 106 -18 150 -22 22 -2 78 -7 125 -11 94 -9 523 -9 610
-1 51 5 133 14 205 22 17 2 46 6 65 10 19 4 49 8 65 10 17 1 30 4 30 5 0 1 11
3 25 6 34 5 93 17 105 20 33 9 91 23 129 30 16 2 34 8 40 12 6 3 21 8 34 10
31 4 291 91 325 108 15 8 27 13 27 10 0 -2 27 9 60 25 33 16 62 29 65 29 15 0
313 155 325 169 3 3 19 13 35 21 17 8 36 21 43 28 7 6 20 12 28 12 8 0 14 4
14 8 0 5 10 13 23 19 28 13 226 162 303 228 32 28 94 85 138 129 l79 79 -39
23 c-21 12 -44 26 -49 31 -22 16 -71 44 -87 50 -10 3 -18 9 -18 13 0 4 -11 11
-25 14 -14 4 -25 11 -25 16 0 6 -5 10 -10 10 -6 0 -46 22 -89 49 -43 28 -82
47 -85 44 -3 -4 -6 -1 -6 6 0 6 -10 16 -22 21 -13 6 -38 19 -56 30 l-34 21
-42 -43 c-24 -24 -69 -65 -101 -93 -32 -27 -69 -60 -83 -72 -14 -13 -28 -23
-31 -23 -3 0 -19 -11 -34 -25 -15 -14 -27 -23 -27 -18 0 4 -6 0 -12 -8 -16
-19 -183 -129 -196 -129 -5 0 -15 -7 -22 -15 -7 -8 -21 -15 -30 -15 -10 0 -20
-4 -22 -8 -7 -20 -366 -177 -403 -177 -5 0 -12 -3 -15 -7 -3 -4 -15 -9 -25
-11 -11 -2 -27 -7 -35 -10 -8 -4 -62 -18 -120 -31 -96 -23 -130 -31 -185 -41
-11 -2 -31 -6 -45 -9 -14 -3 -45 -8 -70 -11 -25 -3 -61 -7 -80 -10 -19 -2 -68
-6 -109 -10 -40 -3 -77 -8 -82 -11 -5 -3 -9 0 -9 7 0 8 -4 8 -12 2 -21 -16
-362 -7 -483 13 -16 2 -48 6 -70 8 -22 2 -62 9 -90 16 -27 6 -61 13 -75 15
-14 1 -45 8 -70 15 -25 7 -55 14 -67 16 -12 2 -35 9 -50 15 -16 6 -30 11 -33
11 -27 3 -132 39 -240 81 -58 23 -107 42 -110 43 -3 0 -27 11 -55 24 -27 13
-52 22 -54 21 -2 -2 -7 2 -10 7 -3 5 -31 22 -61 37 -30 15 -67 36 -82 47 -16
11 -28 16 -28 11 0 -4 -4 -3 -8 2 -4 6 -54 41 -112 80 -58 38 -107 72 -110 75
-3 3 -41 34 -85 70 -44 35 -89 73 -100 85 -11 11 -33 32 -50 46 -29 26 -31 26
-60 9z"/>
</g>
</svg>
